{
  "version": "2.0.0",
  "saved_at": "2026-04-25T04:10:52.576670",
  "tasks": [
    {
      "id": "6cc4825ca013",
      "file_path": "D:\\下载\\【翻唱】 セレナーデ（小夜曲） - 三枝明那_哔哩哔哩_bilibili.mp4",
      "file_name": "【翻唱】 セレナーデ（小夜曲） - 三枝明那_哔哩哔哩_bilibili.mp4",
      "file_size_bytes": 19613850,
      "duration_seconds": 217.454875,
      "config": {
        "transcode": {
          "video_codec": "libx264",
          "audio_codec": "aac",
          "video_bitrate": "",
          "audio_bitrate": "128k",
          "resolution": "",
          "framerate": "",
          "output_extension": ".mp4",
          "quality_mode": "",
          "quality_value": 0,
          "preset": "",
          "pixel_format": "",
          "max_bitrate": "",
          "bufsize": ""
        },
        "filters": {
          "rotate": "",
          "crop": "",
          "watermark_path": "",
          "watermark_position": "bottom-right",
          "watermark_margin": 10,
          "volume": "",
          "speed": "",
          "audio_normalize": false,
          "target_loudness": -16,
          "true_peak": -1,
          "lra": 11,
          "aspect_convert": "",
          "target_resolution": "",
          "bg_image_path": ""
        },
        "clip": null,
        "merge": null,
        "avsmix": null,
        "custom_command": null,
        "output_dir": ""
      },
      "state": "cancelled",
      "progress": {
        "percent": 3.2926371505812417,
        "current_seconds": 7.16,
        "total_seconds": 217.454875,
        "speed": "2.3x",
        "fps": "70",
        "frame": 0,
        "estimated_remaining": "1m 48s"
      },
      "output_path": "D:\\下载\\【翻唱】 セレナーデ（小夜曲） - 三枝明那_哔哩哔哩_bilibili-20260425_041046.mp4",
      "error": "",
      "log_lines": [
        "Input #0, mov,mp4,m4a,3gp,3g2,mj2, from 'D:\\下载\\【翻唱】 セレナーデ（小夜曲） - 三枝明那_哔哩哔哩_bilibili.mp4':",
        "  Metadata:",
        "    major_brand     : isom",
        "    minor_version   : 512",
        "    compatible_brands: isomav01iso2mp41",
        "    encoder         : Lavf59.27.100",
        "    description     : Packed by Bilibili XCoder v2.0.2",
        "  Duration: 00:03:37.45, start: 0.000000, bitrate: 721 kb/s",
        "  Stream #0:0[0x1](und): Video: av1 (libdav1d) (Main) (av01 / 0x31307661), yuv420p(tv, bt709), 1920x1080 [SAR 1:1 DAR 16:9], 608 kb/s, 30 fps, 30 tbr, 16k tbn (default)",
        "    Metadata:",
        "      handler_name    : Bento4 Video Handler",
        "  Stream #0:1[0x2](und): Audio: aac (LC) (mp4a / 0x6134706D), 44100 Hz, stereo, fltp, 105 kb/s (default)",
        "    Metadata:",
        "      handler_name    : Bento4 Sound Handler",
        "Stream mapping:",
        "  Stream #0:0 -> #0:0 (av1 (libdav1d) -> h264 (libx264))",
        "  Stream #0:1 -> #0:1 (aac (native) -> aac (native))",
        "Press [q] to stop, [?] for help",
        "[libx264 @ 0000020d0d283f40] using SAR=1/1",
        "[libx264 @ 0000020d0d283f40] using cpu capabilities: MMX2 SSE2Fast SSSE3 SSE4.2 AVX FMA3 BMI2 AVX2",
        "[libx264 @ 0000020d0d283f40] profile High, level 4.0, 4:2:0, 8-bit",
        "[libx264 @ 0000020d0d283f40] 264 - core 165 r3223 0480cb0 - H.264/MPEG-4 AVC codec - Copyleft 2003-2025 - http://www.videolan.org/x264.html - options: cabac=1 ref=3 deblock=1:0:0 analyse=0x3:0x113 me=hex subme=7 psy=1 psy_rd=1.00:0.00 mixed_ref=1 me_range=16 chroma_me=1 trellis=1 8x8dct=1 cqm=0 deadzone=21,11 fast_pskip=1 chroma_qp_offset=-2 threads=18 lookahead_threads=3 sliced_threads=0 nr=0 decimate=1 interlaced=0 bluray_compat=0 constrained_intra=0 bframes=3 b_pyramid=2 b_adapt=1 b_bias=0 direct=1 weightb=1 open_gop=0 weightp=2 keyint=250 keyint_min=25 scenecut=40 intra_refresh=0 rc_lookahead=40 rc=crf mbtree=1 crf=23.0 qcomp=0.60 qpmin=0 qpmax=69 qpstep=4 ip_ratio=1.40 aq=1:1.00",
        "Output #0, mp4, to 'D:\\下载\\【翻唱】 セレナーデ（小夜曲） - 三枝明那_哔哩哔哩_bilibili-20260425_041046.mp4':",
        "  Metadata:",
        "    major_brand     : isom",
        "    minor_version   : 512",
        "    compatible_brands: isomav01iso2mp41",
        "    description     : Packed by Bilibili XCoder v2.0.2",
        "    encoder         : Lavf62.10.101",
        "  Stream #0:0(und): Video: h264 (avc1 / 0x31637661), yuv420p(tv, bt709, progressive), 1920x1080 [SAR 1:1 DAR 16:9], q=2-31, 30 fps, 15360 tbn (default)",
        "    Metadata:",
        "      encoder         : Lavc62.24.101 libx264",
        "      handler_name    : Bento4 Video Handler",
        "    Side data:",
        "      CPB properties: bitrate max/min/avg: 0/0/0 buffer size: 0 vbv_delay: N/A",
        "  Stream #0:1(und): Audio: aac (LC) (mp4a / 0x6134706D), 44100 Hz, stereo, fltp, 128 kb/s (default)",
        "    Metadata:",
        "      encoder         : Lavc62.24.101 aac",
        "      handler_name    : Bento4 Sound Handler",
        "frame=   20 fps=0.0 q=29.0 size=       0KiB time=00:00:00.60 bitrate=   0.6kbits/s speed=1.19x elapsed=0:00:00.50",
        "frame=   63 fps= 61 q=29.0 size=       0KiB time=00:00:02.03 bitrate=   0.2kbits/s speed=1.96x elapsed=0:00:01.03",
        "frame=   93 fps= 59 q=29.0 size=    1280KiB time=00:00:03.03 bitrate=3457.0kbits/s speed=1.93x elapsed=0:00:01.57",
        "frame=  137 fps= 66 q=29.0 size=    1792KiB time=00:00:04.50 bitrate=3262.3kbits/s speed=2.15x elapsed=0:00:02.08",
        "frame=  180 fps= 69 q=29.0 size=    2304KiB time=00:00:05.93 bitrate=3181.1kbits/s speed=2.28x elapsed=0:00:02.60",
        "frame=  217 fps= 70 q=29.0 size=    2560KiB time=00:00:07.16 bitrate=2926.3kbits/s speed= 2.3x elapsed=0:00:03.11"
      ],
      "created_at": "2026-04-25T04:10:07.173502",
      "started_at": "2026-04-25T04:10:46.942064",
      "completed_at": "2026-04-25T04:10:52.072234"
    }
  ]
}